<svg xmlns="http://www.w3.org/2000/svg" viewBox="0 0 1800 600" role="img" aria-label="Logo Lalangue" style="clip-rule:evenodd;fill-rule:evenodd"><g id="g5" transform="matrix(0.26458333,0,0,0.26458333,24.131655,389.81725)"><g xmlns:inkscape="http://www.inkscape.org/namespaces/inkscape" xmlns:sodipodi="http://sodipodi.sourceforge.net/DTD/sodipodi-0.dtd" id="g43" transform="matrix(3.1725535,0,0,3.1725535,-273.80025,-1326.1433)"><g id="g424" transform="translate(-545.87366,-104.25583)" style="clip-rule:evenodd;fill-rule:evenodd;image-rendering:optimizeQuality;shape-rendering:geometricPrecision;text-rendering:geometricPrecision"><g id="g398-2-3" transform="matrix(0.63826331,0,0,0.6376405,942.13924,96.812084)" style="clip-rule:evenodd;fill-rule:evenodd;image-rendering:optimizeQuality;shape-rendering:geometricPrecision;text-rendering:geometricPrecision"/><g id="g3" inkscape:export-filename="logo_indigo.svg" inkscape:export-xdpi="96" inkscape:export-ydpi="96" data-c="1"><path style="clip-rule:evenodd;fill:#620f31;fill-opacity:0.996078;fill-rule:evenodd;stroke:#610f31;stroke-width:0.05625;stroke-dasharray:none;stroke-opacity:0.996078;image-rendering:optimizeQuality;shape-rendering:geometricPrecision;text-rendering:geometricPrecision" d="m 868.75611,627.15676 c -6.5087,-1.23731 -20.8488,-5.00546 -30.1188,-7.9143 -6.3455,-1.99117 -6.6674,-2.21528 -14.3089,-9.9628 -10.8882,-11.03926 -14.4186,-18.4929 -10.4499,-22.06255 1.4196,-1.27688 2.7482,-1.46655 9.354,-1.33535 15.5179,0.30821 37.9194,4.22424 51.4299,8.99052 8.0847,2.85214 16.0417,6.78127 22.2129,10.96868 l 4.5733,3.10318 -0.2842,5.57985 c -0.3275,6.43054 -1.6432,8.7651 -6.5187,11.56666 -2.6738,1.53645 -4.3656,1.81955 -11.7187,1.96101 -4.7375,0.0911 -11.0964,-0.31042 -14.1709,-0.8949 z" id="path408-7"/><path style="clip-rule:evenodd;fill:#620f31;fill-opacity:0.996078;fill-rule:evenodd;stroke:#610f31;stroke-width:0.05625;stroke-dasharray:none;stroke-opacity:0.996078;image-rendering:optimizeQuality;shape-rendering:geometricPrecision;text-rendering:geometricPrecision" d="m 1072.3801,646.46982 c -3.6274,-1.81211 -5.6573,-5.82887 -5.0331,-9.95973 1.6732,-11.07406 14.2526,-26.75782 24.5644,-30.62642 1.9335,-0.72541 8.2285,-4.28222 13.9888,-7.90401 11.8835,-7.47175 18.3589,-10.5902 20.7179,-9.97742 1.9894,0.51678 4.9374,4.75072 6.0083,8.62898 2.243,8.12349 -5.4824,22.31254 -18.1863,33.40248 -5.0583,4.41563 -14.5538,11.03866 -19.3356,13.48639 -8.4326,4.31645 -17.6051,5.50709 -22.7244,2.94973 z" id="path409-1"/><path style="clip-rule:evenodd;fill:#620f31;fill-opacity:0.996078;fill-rule:evenodd;stroke:#610f31;stroke-width:0.05625;stroke-dasharray:none;stroke-opacity:0.996078;image-rendering:optimizeQuality;shape-rendering:geometricPrecision;text-rendering:geometricPrecision" d="m 1175.8812,553.04031 c -1.297,-0.58761 -3.5617,-2.43792 -5.0326,-4.1118 l -2.6744,-3.04342 h -8.8136 c -8.5724,0 -8.8725,-0.0588 -10.9652,-2.14844 -2.4656,-2.46186 -2.8213,-6.05121 -1.1128,-11.22794 1.0035,-3.04083 0.9536,-3.26861 -1.4706,-6.70782 -1.602,-2.27282 -2.6549,-4.85105 -2.9118,-7.13034 -0.3589,-3.18439 -0.1519,-3.8207 1.9153,-5.88793 2.7289,-2.7289 6.1306,-3.76034 14.7446,-4.47074 13.8073,-1.1387 31.9928,4.73021 40.724,13.14265 3.9752,3.83014 5.9508,8.78505 5.4474,13.66266 -0.4469,4.33025 -3.3018,10.37728 -4.8993,10.37728 -0.5212,0 -4.5008,1.79145 -8.8435,3.981 -8.6202,4.34612 -12.4916,5.20294 -16.1075,3.56484 z" id="path410-0"/><path style="clip-rule:evenodd;fill:#620f31;fill-opacity:0.996078;fill-rule:evenodd;stroke:#610f31;stroke-width:0.05625;stroke-dasharray:none;stroke-opacity:0.996078;image-rendering:optimizeQuality;shape-rendering:geometricPrecision;text-rendering:geometricPrecision" d="m 1208.7082,511.08284 c -6.8014,-1.05142 -14.7664,-3.61509 -21.0601,-6.77856 -6.911,-3.47381 -10.3949,-5.87569 -16.9759,-11.70367 -2.8729,-2.5442 -6.5643,-5.0867 -8.2031,-5.65 -1.9142,-0.65798 -9.4044,-1.20029 -20.9484,-1.51672 -16.0412,-0.4397 -18.2553,-0.66058 -20.6404,-2.05908 -1.4694,-0.8616 -2.7941,-1.93395 -2.9438,-2.383 -0.5499,-1.6497 30.1998,-13.56803 51.2564,-19.8666 25.5028,-7.62851 44.1567,-11.40804 53.1341,-10.7657 18.5307,1.32586 36.2834,22.03093 32.8928,38.3631 -2.9616,14.26615 -14.1852,21.59027 -34.7928,22.70463 -3.8672,0.20913 -9.1406,0.0541 -11.7188,-0.3444 z" id="path411-7"/><path style="clip-rule:evenodd;fill:#620f31;fill-opacity:0.996078;fill-rule:evenodd;stroke:#610f31;stroke-width:0.05625;stroke-dasharray:none;stroke-opacity:0.996078;image-rendering:optimizeQuality;shape-rendering:geometricPrecision;text-rendering:geometricPrecision" d="m 816.52071,578.6228 c -14.1824,-2.51076 -29.8464,-8.02064 -35.9375,-12.64117 -4.18614,-3.17554 -8.50701,-9.57098 -9.86151,-14.59635 -0.47001,-1.74381 -0.70436,-7.36811 -0.53711,-12.89062 0.26399,-8.71681 0.52201,-10.22949 2.34002,-13.71879 2.40951,-4.62457 8.8448,-10.89978 12.958,-12.6356 4.1755,-1.76214 12.8096,-1.51586 18.978,0.54132 10.8014,3.60231 16.0016,6.99667 41.357,26.99508 21.7632,17.16515 25,20.88542 25,28.73422 0,6.67002 -4.2389,9.27362 -17.352,10.65779 -10.5093,1.10932 -29.4514,0.88071 -36.9449,-0.44588 z" id="path412-3"/><path style="clip-rule:evenodd;fill:#620f31;fill-opacity:0.996078;fill-rule:evenodd;stroke:#000000;stroke-width:0.05625;stroke-dasharray:none;stroke-opacity:1;image-rendering:optimizeQuality;shape-rendering:geometricPrecision;text-rendering:geometricPrecision" d="m 888.36251,376.84506 c -3.8489,-3.31702 -11.0785,-9.54185 -16.0657,-13.83298 -10.7078,-9.21322 -18.7241,-14.71447 -31.7091,-21.7604 -14.3849,-7.80562 -22.7676,-10.72272 -40.5886,-14.12451 -11.2103,-2.13991 -14.5612,-3.27503 -17.3153,-5.86555 -3.5978,-3.38414 -3.9562,-6.64239 -2.1043,-19.12653 3.8665,-26.06465 25.9251,-42.64624 56.6239,-42.56456 19.2186,0.0511 32.4878,9.68348 43.8183,31.80847 3.6007,7.03108 16.0735,38.29259 18.9507,47.49759 5.8517,18.72107 5.9118,32.32593 0.1762,39.84574 -3.7005,4.85153 -4.0414,4.79721 -11.7861,-1.87727 z" id="path413-4"/><path style="clip-rule:evenodd;fill:#650128;fill-opacity:0.996078;fill-rule:evenodd;stroke:#d5653e;stroke-width:0.05625;stroke-dasharray:none;stroke-opacity:0.996078;image-rendering:optimizeQuality;shape-rendering:geometricPrecision;text-rendering:geometricPrecision" d="m 992.98481,342.9554 c -1.1002,-5.43056 -1.4641,-10.62439 -1.4641,-20.89843 0,-15.10192 0.9861,-21.17939 5.2379,-32.28121 4.55009,-11.88089 16.47829,-22.01072 52.18399,-44.31632 17.46,-10.9074 30.4688,-21.34296 30.4688,-24.44192 0,-1.6104 6.1549,-13.54336 7.6817,-14.89299 1.6521,-1.46042 1.7384,-1.44735 6.7576,1.02361 5.6557,2.78431 8.3422,5.7561 10.6182,11.74605 2.778,7.31107 1.4266,17.52545 -3.6595,27.65971 -5.9577,11.87126 -12.8842,18.84308 -24.2498,24.40875 -9.0197,4.41684 -24.4939,14.6278 -34.6086,22.83711 -17.9185,14.54292 -34.119,33.42062 -44.53129,51.89002 -1.3929,2.4707 -2.6311,4.49219 -2.7516,4.49219 -0.1205,0 -0.878,-3.25196 -1.6833,-7.22657 z" id="path418-0"/></g><g id="g4" data-c="2"><path style="clip-rule:evenodd;fill:#d5663f;fill-opacity:0.996078;fill-rule:evenodd;stroke:#d5653e;stroke-width:0.05625;stroke-dasharray:none;stroke-opacity:0.996078;image-rendering:optimizeQuality;shape-rendering:geometricPrecision;text-rendering:geometricPrecision" d="m 1225.5991,419.9895 c -8.7638,-4.48362 -9.6261,-16.31167 -1.7993,-24.67916 5.7903,-6.19025 16.0284,-10.44249 29.2549,-12.15058 4.4365,-0.57293 5.6379,-0.46709 7.4911,0.65992 8.5941,5.22639 7.2893,13.94852 -3.744,25.02694 -7.6192,7.65039 -15.3443,11.69412 -23.2546,12.17265 -3.9815,0.24086 -5.9675,-0.0165 -7.9481,-1.02977 z" id="path416-5"/><path style="clip-rule:evenodd;fill:#d5663f;fill-opacity:0.996078;fill-rule:evenodd;stroke:#d5653e;stroke-width:0.05625;stroke-dasharray:none;stroke-opacity:0.996078;image-rendering:optimizeQuality;shape-rendering:geometricPrecision;text-rendering:geometricPrecision" d="m 1134.5173,576.77516 c -1.0825,-1.19606 -1.2753,-2.27188 -0.88,-4.90826 1.032,-6.88197 4.9195,-10.37676 13.5859,-12.21368 5.9461,-1.2603 6.8796,-1.13116 9.6377,1.33317 2.0183,1.80333 2.3783,2.59243 1.9541,4.28254 -0.8637,3.44151 -4.9932,7.36532 -10.8183,10.27949 -6.4659,3.23476 -11.2668,3.67168 -13.4794,1.22674 z" id="path417-1"/><path style="clip-rule:evenodd;fill:#d5653e;fill-opacity:0.996078;fill-rule:evenodd;stroke:#d5653e;stroke-width:0.05625;stroke-dasharray:none;stroke-opacity:0.996078;image-rendering:optimizeQuality;shape-rendering:geometricPrecision;text-rendering:geometricPrecision" d="m 896.61334,489.6102 c -2.6048,-1.39648 -7.7705,-4.99999 -11.4794,-8.00781 -4.2874,-3.47701 -7.372,-5.95031 -9.8177,-7.79081 -5.1171,-3.85073 -7.4379,-4.93143 -12.1291,-6.63906 -6.6512,-2.42108 -12.0267,-3.99962 -51.8136,-15.21544 -23.6578,-6.66908 -26.9282,-8.17918 -31.6813,-14.62916 -4.59453,-6.23481 -7.51516,-11.99766 -9.84462,-19.42494 -2.41523,-7.70076 -2.59446,-21.52646 -0.36425,-28.09746 3.75437,-11.06172 6.146,-12.55683 17.67147,-11.04713 12.7455,1.66953 25.8615,5.72601 60.7735,18.79585 26.9783,10.09974 32.9239,13.3587 44.1929,24.22367 14.4518,13.93363 22.6793,31.30872 23.704,50.05886 0.4034,7.37979 0.2704,8.6166 -1.3244,12.32272 -3.6338,8.44435 -9.1616,10.12881 -17.8875,5.45071 z" id="path405-8" sodipodi:nodetypes="ssssssssssssss"/><path style="clip-rule:evenodd;fill:#d5663f;fill-opacity:0.996078;fill-rule:evenodd;stroke:#d5653e;stroke-width:0.05625;stroke-dasharray:none;stroke-opacity:0.996078;image-rendering:optimizeQuality;shape-rendering:geometricPrecision;text-rendering:geometricPrecision" d="m 968.22681,336.31478 c -3.4673,-2.59638 -7.5578,-7.47395 -14.6628,-17.48415 -8.4808,-11.94847 -15.0932,-17.40505 -38.1684,-31.49665 -34.3747,-20.992 -40.7849,-28.91778 -40.7896,-50.43326 0,-15.52402 6.0489,-27.25381 15.4998,-30.03965 2.3094,-0.68075 5.9878,4.03483 13.9862,17.92967 10.155,17.6415 15.9143,23.5305 26.8819,27.48735 16.2555,5.86464 31.0756,19.52852 37.8877,34.93183 4.3133,9.7532 5.2376,15.27269 5.4431,32.5033 0.105,8.80859 -0.1216,16.63086 -0.5037,17.38281 -0.9628,1.89493 -2.2392,1.71603 -5.5742,-0.78125 z" id="path419-9"/><path style="clip-rule:evenodd;fill:#d5653e;fill-opacity:0.996078;fill-rule:evenodd;stroke:#d5653e;stroke-width:0.0397748;stroke-dasharray:none;stroke-opacity:0.996078;image-rendering:optimizeQuality;shape-rendering:geometricPrecision;text-rendering:geometricPrecision" d="m 1126.817,369.0103 c -2.4721,-0.38024 -7.4461,-2.42016 -7.4461,-3.05376 0,-1.9296 18.2145,-12.20086 32.3639,-18.25018 13.7489,-5.87808 47.4205,-15.779 54.0909,-15.90509 4.9567,-0.0937 13.4298,5.29051 13.593,8.63761 0.3133,6.42496 -3.402,11.19668 -12.3602,15.87495 -7.4179,3.8739 -9.5915,4.40756 -20.2688,4.9765 -10.0017,0.53295 -12.5684,0.9153 -27.3679,4.07688 -14.8062,3.16302 -26.9235,4.51695 -32.6048,3.64309 z" id="path422-9"/></g><g id="g2" data-c="3"><path style="clip-rule:evenodd;fill:#4c3c6c;fill-opacity:0.996078;fill-rule:evenodd;stroke:#4b3c6b;stroke-width:0.05625;stroke-dasharray:none;stroke-opacity:0.996078;image-rendering:optimizeQuality;shape-rendering:geometricPrecision;text-rendering:geometricPrecision" d="m 1071.6337,494.06997 c -5.315,-4.4723 -7.6466,-18.60177 -5.293,-32.07526 1.6366,-9.36861 7.0832,-23.64324 11.6321,-30.48577 4.3299,-6.51301 14.587,-16.57117 21.682,-21.26138 7.154,-4.72922 20.6967,-11.14257 31.25,-14.79882 14.6476,-5.07479 42.0044,-11.60885 59.5203,-14.21618 6.6081,-0.98365 8.7048,-0.42395 12.1221,3.23595 7.8089,8.36343 4.7933,28.51938 -6.9606,46.52459 -5.4832,8.39947 -10.8501,13.2478 -19.893,17.97106 -9.1597,4.78422 -14.5995,6.66385 -34.2997,11.85161 -28.6658,7.5487 -36.1648,11.18495 -49.7308,24.11411 -12.0472,11.48176 -15.4183,13.02009 -20.0294,9.14009 z" id="path401-0"/><path style="clip-rule:evenodd;fill:#4c3c6c;fill-opacity:0.996078;fill-rule:evenodd;stroke:#4b3c6b;stroke-width:0.05625;stroke-dasharray:none;stroke-opacity:0.996078;image-rendering:optimizeQuality;shape-rendering:geometricPrecision;text-rendering:geometricPrecision" d="m 974.53104,697.8774 c -7.63,-9.71264 -11.5131,-18.78098 -17.9048,-41.81318 -2.1093,-7.60068 -5.0392,-17.1885 -6.511,-21.30627 -3.1165,-8.71968 -13.6567,-28.6711 -19.6507,-37.1965 -8.9508,-12.7311 -21.4358,-24.95804 -39.0129,-38.20648 -12.587,-9.48731 -40.6729,-27.97236 -46.5781,-30.65597 -7.772,-3.53195 -13.1875,-9.56334 -13.1875,-14.6873 0,-6.74996 3.2558,-8.12703 18.75,-7.93059 24.7256,0.31349 37.7836,5.01259 66.4989,23.93047 7.3988,4.87435 13.9333,8.67787 14.5212,8.45227 1.3075,-0.50171 3.3565,-4.31583 3.3505,-6.23672 -0.01,-3.17985 -1.8252,-7.42846 -7.0782,-16.5651 -3.0465,-5.29877 -5.5996,-10.55956 -5.6735,-11.69064 -0.1279,-1.95589 0.04,-2.0509 3.4365,-1.94201 1.964,0.063 5.8588,1.02977 8.655,2.14844 2.7962,1.11867 5.8351,2.03395 6.7531,2.03395 3.6823,0 4.1585,-5.19549 1.6866,-18.404 -0.88,-4.70202 -1.9378,-12.84434 -2.3508,-18.09403 -1.89,-24.0245 -11.7642,-47.61008 -28.3196,-67.64485 l -3.1006,-3.75226 2.4613,-11.09149 c 3.2554,-14.66942 3.972,-20.26162 3.9743,-31.01337 0,-14.45418 -2.6515,-23.74344 -9.9993,-34.99136 -5.8598,-8.96994 -6.1075,-12.66489 -0.849,-12.66489 8.7549,0 31.3845,13.80035 36.1589,22.05099 7.3543,12.70896 18.2678,45.28432 23.5452,70.27926 4.929,23.34518 9.763,58.81329 9.774,71.71393 0,4.52179 0.3423,13.84644 0.7521,20.72144 0.4098,6.875 1.0949,19.17969 1.5223,27.34375 1.1439,21.84706 2.5852,118.09314 2.2799,152.2508 l -0.2644,29.59455 z" id="path398-9"/><path style="clip-rule:evenodd;fill:#4c3c6c;fill-opacity:0.996078;fill-rule:evenodd;stroke:#4b3c6b;stroke-width:0.05625;stroke-dasharray:none;stroke-opacity:0.996078;image-rendering:optimizeQuality;shape-rendering:geometricPrecision;text-rendering:geometricPrecision" d="m 999.42984,698.66739 c -0.2861,-0.46295 -1.0931,-4.31618 -1.7934,-8.56273 -1.055,-6.3984 -1.1891,-11.26749 -0.7828,-28.42414 0.2697,-11.38672 0.8138,-25.625 1.2093,-31.64063 0.3954,-6.01562 0.744,-20.95703 0.7746,-33.20312 0.09,-35.96635 2.36476,-94.39651 4.75996,-122.26563 3.6003,-41.89118 5.081,-52.93631 8.8567,-66.06708 1.0421,-3.62404 3.679,-13.5056 5.8597,-21.959 2.1807,-8.45342 5.2217,-19.17608 6.7579,-23.82813 5.7701,-17.4742 15.333,-33.68835 24.8152,-42.07481 10.5169,-9.30155 24.2967,-14.13803 25.8989,-9.09005 0.5613,1.76862 -0.5369,4.92261 -6.0584,17.40014 -6.3636,14.38017 -6.8586,16.85327 -6.3324,31.63637 0.6079,17.0763 3.1851,25.94315 6.3918,21.99037 1.1009,-1.35695 2.2628,-7.74658 3.6584,-20.11718 1.364,-12.09022 2.4267,-16.1557 8.5105,-32.55703 5.3693,-14.47488 7.1403,-23.64016 6.4288,-33.26921 -0.2957,-4.00128 -0.1691,-8.09158 0.3049,-9.85196 2.4421,-9.06908 14.9664,-17.6088 33.8513,-23.08141 28.293,-8.199 45.3184,-4.91773 62.3348,12.01367 6.5132,6.48066 8.0113,8.49929 11.5234,15.5276 4.6323,9.26988 5.0813,12.89978 2.4617,19.90147 -2.9248,7.81717 -10.4485,13.71429 -23.4247,18.36055 -8.1397,2.91449 -35.0256,11.46924 -39.8437,12.67775 -9.9451,2.49446 -19.0623,8.92124 -35.8852,25.29537 -7.5483,7.34699 -15.8997,15.02837 -18.5586,17.06973 -5.6931,4.37078 -15.4647,16.23756 -21.2294,25.7814 -8.2841,13.71465 -15.2514,31.09219 -18.8659,47.05394 -0.973,4.29688 -2.6692,10.44922 -3.7693,13.67188 -1.6029,4.69575 -2.0083,7.41086 -2.0412,13.67187 -0.036,6.92923 0.1797,8.20546 1.9121,11.28819 1.0742,1.91162 3.1097,4.14946 4.5234,4.97295 2.6537,1.54592 7.9727,1.95675 12.4895,0.9647 l 2.4248,-0.53258 -2.2322,6.56288 c -2.952,8.67917 -4.0864,14.80059 -3.7828,20.41299 0.4263,7.88149 3.8388,7.9529 12.2261,0.25585 8.4599,-7.76364 24.4848,-14.95838 41.3832,-18.57999 5.1902,-1.11235 11.8499,-1.76447 21.1397,-2.07002 l 13.5624,-0.44608 -0.9935,1.86681 c -1.96,3.68297 -7.347,10.45521 -12.0878,15.19597 -8.7495,8.74952 -22.4926,18.78711 -44.9028,32.79581 -16.6287,10.3946 -27.2091,23.31359 -46.6822,57.00002 -4.7194,8.16406 -9.8585,16.93413 -11.4203,19.48903 -4.0032,6.54891 -7.154,15.16092 -11.1629,30.51097 -1.9078,7.30469 -4.3228,16.09375 -5.3667,19.53125 -2.3275,7.66442 -6.1379,15.86182 -6.84286,14.72125 z" id="path400-8"/><path style="clip-rule:evenodd;fill:#4c3c6c;fill-opacity:0.996078;fill-rule:evenodd;stroke:#4b3c6b;stroke-width:0.05625;stroke-dasharray:none;stroke-opacity:0.996078;image-rendering:optimizeQuality;shape-rendering:geometricPrecision;text-rendering:geometricPrecision" d="m 833.24854,367.39263 c -1.5039,-0.15831 -8.6643,-1.16517 -15.9121,-2.23747 -10.6333,-1.5732 -15.8375,-1.92594 -26.9531,-1.82688 -10.8147,0.0964 -14.85679,-0.16433 -18.80669,-1.21298 -13.00447,-3.45255 -20.69106,-10.61024 -21.67956,-20.18785 -0.40001,-3.87578 -0.27102,-4.32968 1.66262,-5.85069 4.54403,-3.57433 14.18123,-3.95678 31.68403,-1.25738 10.0823,1.55495 18.109,3.6811 29.6923,7.86502 9.5019,3.43209 30.4413,13.23553 39.0171,18.26708 l 4.2515,2.49439 -2.7828,1.42767 c -4.5717,2.34542 -12.4625,3.33076 -20.1733,2.51909 z" id="path402-8"/><path style="clip-rule:evenodd;fill:#4c3c6c;fill-opacity:0.996078;fill-rule:evenodd;stroke:#4b3c6b;stroke-width:0.05625;stroke-dasharray:none;stroke-opacity:0.996078;image-rendering:optimizeQuality;shape-rendering:geometricPrecision;text-rendering:geometricPrecision" d="m 730.90479,420.03893 c -10.27537,-2.34647 -18.46464,-8.81502 -20.57727,-16.2536 -1.90478,-6.70677 -2.88946,-14.02791 -2.08811,-15.52524 0.61354,-1.14643 2.59243,-1.41358 13.83909,-1.86829 14.81442,-0.59897 19.52885,-0.004 25.45157,3.21344 8.70309,4.72745 12.61726,17.36377 7.57289,24.44793 -3.76849,5.29237 -15.03281,8.07875 -24.19817,5.98576 z" id="path403-7"/><path style="clip-rule:evenodd;fill:#4f3a78;fill-opacity:0.996078;fill-rule:evenodd;stroke:#4b3c6b;stroke-width:0.05625;stroke-dasharray:none;stroke-opacity:0.996078;image-rendering:optimizeQuality;shape-rendering:geometricPrecision;text-rendering:geometricPrecision" d="m 744.18604,513.37402 c -7.46187,-2.49051 -12.69221,-5.64729 -17.77009,-10.72517 -6.21852,-6.21852 -8.91081,-11.81301 -9.4072,-19.54782 -0.32435,-5.054 -0.13995,-6.02339 1.83656,-9.65488 4.01567,-7.37812 10.90924,-12.05952 22.09533,-15.00489 4.59727,-1.21048 8.68912,-1.59695 17.69853,-1.67158 17.48451,-0.14485 29.93127,2.44174 57.81247,12.01415 9.0235,3.098 19.7461,6.63713 23.8282,7.86474 4.082,1.2276 7.9492,2.43916 8.5937,2.69235 0.6445,0.25319 -3.5742,1.428 -9.375,2.6107 -25.9661,5.29412 -47.9969,13.9693 -63.12442,24.85692 -8.88836,6.39713 -11.73547,7.47638 -20.46933,7.75925 -5.62124,0.18206 -8.46434,-0.10757 -11.71875,-1.19377 z" id="path404-7"/><path style="clip-rule:evenodd;fill:#4b3c6b;fill-opacity:0.996078;fill-rule:evenodd;stroke:#4b3c6b;stroke-width:0.028125;stroke-dasharray:none;stroke-opacity:0.996078;image-rendering:optimizeQuality;shape-rendering:geometricPrecision;text-rendering:geometricPrecision" d="m 977.74821,273.30907 c -5.3331,-1.86471 -9.7205,-5.52618 -18.772,-15.66605 -3.4714,-3.88874 -7.6221,-8.3009 -9.2239,-9.8048 -5.1312,-4.81776 -6.4981,-6.33227 -8.785,-9.73407 -8.4843,-12.6203 -12.4104,-26.37512 -11.8278,-41.43781 0.5803,-15.00401 5.3521,-29.3911 14.2623,-43.00082 10.2061,-15.58921 24.0937,-26.53811 38.7023,-30.51274 5.2117,-1.41797 13.5081,-1.52693 18.20569,-0.23909 8.1571,2.23628 11.8196,4.77559 23.167,16.0625 9.5184,9.46771 13.9467,14.85413 18.4366,22.42557 8.3407,14.06549 12.087,27.47979 11.594,41.51458 -0.3718,10.58462 -2.0768,15.85221 -7.6517,23.6396 -6.1504,8.59136 -12.8881,14.46109 -30.7022,26.74701 -9.8926,6.82269 -17.15599,12.25747 -20.89839,15.63696 -5.4992,4.96602 -10.7927,6.36713 -16.5069,4.36916 z" id="path423-6"/></g></g></g><path d="m 3675.4128,-534.34533 c -58.2071,-7.75213 -111.1796,-52.52558 -127.153,-107.47246 -17.0409,-58.61831 0.9013,-125.02254 44.0401,-162.99515 56.7966,-49.99436 155.8697,-54.01605 208.4743,-8.46215 l 17.6372,15.27251 -11.7848,11.0443 -11.7843,11.04381 -27.8876,-15.80264 c -24.9458,-14.13563 -31.6534,-15.77315 -63.579,-15.52188 -52.3933,0.41402 -87.2584,20.88127 -109.9508,64.55162 -14.7967,28.47541 -15.1517,79.12935 -0.7481,106.80956 36.0257,69.23288 134.4683,89.78769 189.5223,39.57252 9.6718,-8.82192 10.0188,-8.75054 22.9166,4.71172 l 13.0958,13.66926 -18.0069,14.84279 c -29.7941,24.55889 -76.0975,35.22153 -124.7918,28.73619 z m 426.3845,0.26174 c -28.2023,-4.72552 -61.3437,-23.70421 -75.0796,-42.99508 -20.1246,-28.26173 -23.5358,-51.76988 -23.5358,-162.19329 v -103.93807 h 18.7137 18.7136 l 1.5114,108.26337 c 1.3829,99.0736 2.3409,109.6758 11.286,124.9031 33.7354,57.42671 127.4867,55.97621 156.7844,-2.42605 8.4912,-16.9262 9.6885,-30.39179 11.1029,-124.85646 l 1.5856,-105.88396 h 19.0848 19.0848 l -1.6351,110.64279 c -1.5457,104.60479 -2.2419,111.8758 -12.7603,133.23486 -24.7055,50.16615 -81.6896,75.83385 -144.8564,65.24879 z M 2718.2979,-688.54807 v -154.66196 h 107.0737 107.0737 v 19.03532 19.03532 h -88.0384 -88.0384 v 54.72654 54.72654 h 78.5207 78.5207 v 16.53836 16.53789 l -77.331,1.30772 -77.3309,1.30725 -1.3279,63.0545 -1.3278,63.05449 h -18.8972 -18.8972 z m 358.3188,148.71343 c 1.3336,-3.27169 32.8547,-72.86958 70.047,-154.66196 l 67.6219,-148.71343 h 19.821 19.821 l 46.9283,103.50454 c 25.8105,56.92751 57.2325,126.52539 69.8273,154.66197 l 22.899,51.15742 h -20.3726 -20.3721 l -17.1213,-38.07064 -17.1213,-38.07064 h -85.4967 -85.4969 l -15.9705,38.00878 -15.9706,38.00829 -20.7342,0.0619 c -14.7253,0.0476 -20.0314,-1.66178 -18.3093,-5.88667 z m 222.3257,-111.8325 c 0.1713,-9.08888 -64.1529,-148.35841 -67.0539,-145.17999 -3.038,3.32832 -52.5051,113.6418 -61.9019,138.04175 l -4.123,10.70737 h 66.5056 c 36.5783,0 66.536,-1.60611 66.5732,-3.56913 z m 1180.1225,-36.88093 v -154.66196 h 19.0354 19.0353 v 135.62665 135.62664 h 83.2795 83.2795 v 19.03532 19.03532 h -102.3148 -102.3149 z m 442.5712,19.03532 v -135.62664 h -52.3471 -52.3471 v -19.03532 -19.03532 h 126.109 126.109 v 19.03532 19.03532 h -54.7266 -54.7265 v 135.62664 135.62665 h -19.0353 -19.0354 z m 277.4184,129.67811 c 1.3339,-3.27169 32.855,-72.86958 70.0471,-154.66196 l 67.6221,-148.71343 h 19.821 19.821 l 46.9282,103.50454 c 25.8105,56.92751 57.2326,126.52539 69.8273,154.66197 l 22.899,51.15742 h -20.3725 -20.3721 l -17.1213,-38.07064 -17.1214,-38.07064 h -85.4966 -85.4972 l -15.9701,38.00878 -15.9707,38.00829 -20.7342,0.0619 c -14.7252,0.0476 -20.0313,-1.66178 -18.3096,-5.88667 z m 222.3259,-111.8325 c 0.1713,-9.08888 -64.1528,-148.35841 -67.0538,-145.17999 -3.0381,3.32832 -52.5051,113.6418 -61.9019,138.04175 l -4.1231,10.70737 h 66.5056 c 36.5783,0 66.5361,-1.60611 66.5732,-3.56913 z m 266.4274,-36.88093 v -154.66196 h 75.1414 c 85.5838,0 118.5634,6.27404 154.6268,29.41575 42.7895,27.45797 63.0045,68.62375 62.6714,127.62563 -0.1951,34.33162 -2.1624,44.18431 -13.0159,65.13648 -23.3734,45.12037 -60.8107,72.51552 -112.4911,82.31633 -14.0067,2.65638 -57.2968,4.82974 -96.1997,4.82974 h -70.7329 z m 192.7326,103.81768 c 41.023,-21.87158 59.4854,-54.09266 59.4854,-103.81768 0,-49.72453 -18.4624,-81.94609 -59.4854,-103.8172 -16.1467,-8.60872 -28.9651,-10.41708 -84.4692,-11.91753 l -65.4339,-1.76934 v 117.50407 117.50408 l 65.4339,-1.76886 c 55.5041,-1.50046 68.3225,-3.30929 84.4692,-11.91754 z" style="clip-rule:evenodd;fill:#5a5a5e;fill-opacity:1;fill-rule:evenodd;stroke-width:4.75883;image-rendering:optimizeQuality;shape-rendering:geometricPrecision;text-rendering:geometricPrecision" id="path1-9"/><path d="m 4812.2871,286.53655 c -51.7635,-4.36196 -109.5181,-21.61603 -138.6751,-41.42846 l -15.5258,-10.55034 19.0204,-31.75851 19.02,-31.75903 24.7683,13.97575 c 67.8018,38.25671 168.6808,37.23641 205.7628,-2.08151 8.0229,-8.50688 17.1582,-24.04923 20.3009,-34.53865 5.9315,-19.79768 7.8761,-63.176299 2.8316,-63.176299 -1.585,0 -9.0464,5.187599 -16.5818,11.527299 -36.8789,31.03185 -111.9874,40.55855 -171.5776,21.76261 -98.3825,-31.031849 -146.978,-137.123788 -109.1219,-238.23367 24.857,-66.39142 92.6335,-109.13903 173.0408,-109.13903 43.3661,0 76.1995,9.4439 107.3628,30.88005 l 24.0056,16.51316 1.4463,-22.5069 1.4466,-22.50689 39.5071,-1.38623 39.5078,-1.38579 -1.4371,194.118387 -1.4365,194.118853 -13.3357,28.55296 c -29.4577,63.07258 -79.0233,92.72056 -165.1204,98.76811 -14.3957,1.01077 -34.7397,1.1164 -45.2091,0.23336 z m 85.6591,-242.970147 c 37.9702,-19.48361 54.7264,-48.2569268 54.7264,-93.973578 0,-45.553405 -16.4268,-73.888905 -54.7264,-94.399475 -25.2698,-13.53314 -86.7989,-14.18034 -111.8326,-1.17685 -40.1846,20.87317 -57.1061,49.20773 -57.1061,95.622963 0,53.0833468 24.244,85.849772 76.1106,102.865941 20.3131,6.663767 72.1476,1.672718 92.8281,-8.939001 z M 3205.9466,145.66806 c -86.0412,-24.4228 -118.4216,-113.805063 -63.3222,-174.793743 27.7233,-30.686362 56.7208,-38.804914 148.5685,-41.595484 l 77.8725,-2.366084 -2.5727,-19.180483 c -2.8024,-20.896506 -13.5541,-38.014466 -32.9918,-52.526526 -27.4414,-20.48818 -110.5572,-14.33218 -154.9542,11.47638 -8.6559,5.032 -16.6555,9.14885 -17.7771,9.14885 -4.6051,0 -30.8329,-57.84642 -28.1766,-62.14411 5.5278,-8.94422 49.9559,-28.4483 81.8743,-35.94393 48.4772,-11.38311 123.8847,-7.39522 158.328,8.37316 31.7153,14.51966 55.2177,37.10936 68.5291,65.86746 9.2173,19.91237 10.0473,31.38302 11.4535,158.284357 l 1.5167,136.816353 h -40.777 -40.7765 v -21.90775 -21.90774 l -17.4997,15.36483 c -9.6246,8.45074 -25.1502,18.57133 -34.5014,22.49022 -23.0446,9.65806 -87.7537,12.21976 -114.7934,4.54424 z m 103.5369,-62.855119 c 16.7853,-4.984852 29.3587,-12.954468 41.3136,-26.187346 15.3497,-16.990476 17.1852,-21.815449 17.1852,-45.181785 v -26.159735 l -53.5368,0.114152 c -29.4452,0.06196 -62.1027,2.091513 -72.5721,4.509488 -38.4732,8.8856961 -52.5689,46.868276 -28.1585,75.878114 19.8191,23.553829 53.5797,29.556121 95.7686,17.02755 z m 516.5032,61.197589 c -28.8637,-8.86189 -62.9697,-36.66154 -74.3172,-60.574667 -4.3001,-9.061269 -7.7398,-28.220336 -7.7398,-43.107379 0,-81.020961 52.4178,-112.150395 188.8476,-112.150395 h 58.6117 V -89.66752 c -0.047,-25.80758 -15.283,-47.66108 -41.3147,-59.17652 -33.1312,-14.65527 -88.5546,-10.8011 -131.1206,9.11794 -35.4879,16.60687 -33.7144,17.31024 -52.9381,-20.99025 l -12.3725,-24.65074 16.0857,-9.94169 c 32.0488,-19.80721 69.7797,-29.5609 124.7361,-32.24439 71.6594,-3.50013 111.1241,7.65983 144.2569,40.79268 37.2406,37.2407 39.5973,48.57575 41.9582,201.787234 l 2.0342,132.057516 h -40.8948 -40.8945 v -21.63887 -21.63886 l -17.8458,14.28601 c -9.8151,7.85681 -26.4116,17.85655 -36.881,22.22134 -27.177,11.32984 -89.127,13.23527 -120.1933,3.69665 z m 127.2831,-68.283955 c 27.4889,-14.023796 38.1192,-31.973151 38.1192,-64.365062 v -27.179597 l -63.0545,2.136231 c -67.1819,2.276143 -84.2337,6.9155422 -94.2572,25.644871 -15.2641,28.520599 -0.6276,61.733431 31.7081,71.953497 23.7737,7.514184 64.1028,3.738538 87.4844,-8.18994 z m 1303.9679,68.787435 c -33.4921,-9.36298 -58.2214,-25.79428 -76.2248,-50.64725 -25.7435,-35.538006 -28.4694,-54.236861 -28.4694,-195.29049 v -127.8098 l 41.6397,1.37485 41.64,1.37481 2.3793,123.72958 c 2.314,120.352222 2.6915,124.232121 13.8219,142.137196 19.3203,31.080406 61.9012,43.651336 106.1906,31.350701 23.0045,-6.388724 44.35,-24.653126 57.461,-49.167283 9.8491,-18.4142812 10.594,-26.7636638 12.0621,-135.207844 l 1.5648,-115.58106 41.2662,1.36912 41.2663,1.36959 1.2449,186.78408 1.2449,186.78405 h -40.5056 -40.5052 v -21.41471 c 0,-11.77812 -1.1964,-21.41473 -2.6585,-21.41473 -1.4621,0 -10.5633,6.32781 -20.2252,14.06184 -9.6615,7.73357 -26.0947,17.60721 -36.5173,21.94058 -26.8022,11.14282 -84.5131,13.24861 -116.6757,4.25677 z m 490.1595,0.70243 C 5689.161,132.24671 5641.0403,95.32201 5616.1079,44.473425 c -12.9611,-26.433868 -13.8548,-31.940319 -13.8548,-85.362924 0,-52.943871 0.9731,-59.088501 13.3575,-84.310771 18.3873,-37.44913 49.5023,-67.93941 87.8875,-86.1234 30.2008,-14.30692 35.0821,-15.1602 86.7288,-15.1602 49.3148,0 57.3971,1.25207 81.7334,12.6604 37.0752,17.38021 67.7674,47.0691 84.7023,81.93276 15.2857,31.46967 26.1584,86.621197 21.3718,108.413276 l -2.9693,13.5203132 h -144.7667 c -97.0352,0 -144.766,1.631806 -144.766,4.948721 0,11.5687136 20.0376,42.7728348 35.8206,55.7829988 22.3762,18.444285 45.5633,24.950562 88.461,24.823007 36.9725,-0.109438 68.1664,-10.320479 87.7797,-28.731427 9.7764,-9.177408 9.8915,-9.11555 33.056,17.716168 l 23.246,26.925464 -17.9993,15.559469 c -45.3902,39.237 -117.8076,53.89278 -188.4992,38.14916 z m 147.5239,-224.412624 c 0,-4.055942 -3.463,-14.227956 -7.695,-22.604446 -39.2806,-77.74452 -153.3726,-79.39441 -192.4561,-2.78343 -17.398,34.102714 -21.3031,32.762149 95.4569,32.762149 91.3798,0 104.6942,-0.937464 104.6942,-7.374273 z M 2735.0579,-97.99545 V -343.0752 h 45.2089 45.2089 v 207.00911 207.009077 h 126.109 126.109 v 38.070633 38.07064 h -171.3179 -171.3179 z m 832.7952,-14.27648 v -259.35623 h 42.8295 42.8294 v 259.35623 259.35619 h -42.8294 -42.8295 z m 624.5412,72.57214 1.2449,-186.78408 39.2603,-1.38195 39.2604,-1.38246 v 23.9869 c 0,13.19241 1.7678,23.9864 3.9293,23.9864 2.1611,0 8.7965,-5.18046 14.7448,-11.51255 5.9481,-6.33164 21.8472,-16.50315 35.331,-22.60256 20.9034,-9.45625 32.2287,-11.09092 76.8629,-11.09186 47.5473,-10e-4 54.5284,1.15923 76.1413,12.65989 30.315,16.13245 51.3348,38.13489 65.19,68.2383 10.4714,22.75244 11.0179,29.68084 12.4719,158.231085 l 1.521,134.436935 h -42.805 -42.8051 l -1.5453,-122.90011 -1.5453,-122.8996 -12.6621,-19.12146 c -16.6104,-25.08333 -38.1151,-34.88508 -76.537,-34.88508 -40.8907,0 -67.4263,13.80344 -86.8776,45.19125 l -14.2764,23.037519 -1.5615,115.788992 -1.5614,115.788489 h -42.5128 -42.5132 z" style="fill:#000000;stroke-width:4.75884" id="path1-8"/></g></svg>